<svg xmlns="http://www.w3.org/2000/svg" width="92" height="92" viewBox="0 0 92 92">
  <g id="Group_119" data-name="Group 119" transform="translate(-323 -311)">
    <path id="Path_424" data-name="Path 424" d="M0,0H92V92H0Z" transform="translate(323 311)" fill="none"/>
    <g id="Group_90" data-name="Group 90" transform="translate(326.615 320.599)">
      <g id="wind-mill" transform="translate(0)">
        <path id="Path_422" data-name="Path 422" d="M1.309,0a1.346,1.346,0,0,1,1.32,1.354A1.318,1.318,0,0,1,1.32,2.7,1.346,1.346,0,0,1,0,1.343,1.318,1.318,0,0,1,1.309,0Z" transform="matrix(0.16, -0.987, 0.987, 0.16, 22.969, 29.636)" fill="#cad9fc"/>
        <path id="Path_417" data-name="Path 417" d="M193.827,20.878a8.021,8.021,0,0,1,3.308.71l.3-5.37a28.972,28.972,0,0,0-3.21-14.928L193.559,0l-.846,1.9a29.047,29.047,0,0,0-2.462,13.371l.357,6.274A8.027,8.027,0,0,1,193.827,20.878Z" transform="translate(-169.307 0)" fill="#004aad"/>
        <path id="Path_418" data-name="Path 418" d="M178.04,139.005a5.772,5.772,0,1,0,5.77-5.614h0A5.7,5.7,0,0,0,178.04,139.005Zm5.77-3.377a3.378,3.378,0,1,1-3.47,3.377h0A3.429,3.429,0,0,1,183.81,135.629Z" transform="translate(-159.29 -110.45)" fill="#cad9fc"/>
        <path id="Path_419" data-name="Path 419" d="M253.768,185.364A30.231,30.231,0,0,0,243.776,176l-5.89-3.5a7.682,7.682,0,0,1-3.644,5.407l4.671,3.365a30.949,30.949,0,0,0,14.589,5.691l1.438.169Z" transform="translate(-205.558 -142.828)" fill="#004aad"/>
        <path id="Path_420" data-name="Path 420" d="M184.889,209.6a8.105,8.105,0,0,1-1.616-.163l-.218.157-3.7,36.574H191.34l-4.56-36.792A8.094,8.094,0,0,1,184.889,209.6Z" transform="translate(-160.369 -173.366)" fill="#004aad"/>
        <path id="Path_421" data-name="Path 421" d="M83.122,177.262a30.23,30.23,0,0,0-9.993,9.368l-1.172,1.763,1.438-.169a30.942,30.942,0,0,0,14.585-5.688l4.534-3.251a7.7,7.7,0,0,1-3.8-5.261Z" transform="translate(-71.958 -144.094)" fill="#004aad"/>
      </g>
      <g id="wind-mill-2" data-name="wind-mill" transform="translate(48.335 19.288)">
        <path id="Path_423" data-name="Path 423" d="M.962,0a.989.989,0,0,1,.97,1,.969.969,0,0,1-.962.987.989.989,0,0,1-.97-1A.969.969,0,0,1,.962,0Z" transform="matrix(0.16, -0.987, 0.987, 0.16, 16.884, 21.784)" fill="#cad9fc"/>
        <path id="Path_417-2" data-name="Path 417" d="M192.868,15.346a5.9,5.9,0,0,1,2.432.522l.221-3.947A21.3,21.3,0,0,0,193.162.947L192.671,0l-.622,1.4a21.352,21.352,0,0,0-1.809,9.828l.263,4.612A5.9,5.9,0,0,1,192.868,15.346Z" transform="translate(-174.844 0)" fill="#004aad"/>
        <path id="Path_418-2" data-name="Path 418" d="M178.04,137.518a4.243,4.243,0,1,0,4.242-4.127h0A4.19,4.19,0,0,0,178.04,137.518Zm4.241-2.482a2.483,2.483,0,1,1-2.551,2.482h0A2.52,2.52,0,0,1,182.281,135.036Z" transform="translate(-164.257 -116.528)" fill="#cad9fc"/>
        <path id="Path_419-2" data-name="Path 419" d="M248.6,181.954a22.22,22.22,0,0,0-7.345-6.886l-4.33-2.574a5.647,5.647,0,0,1-2.678,3.975l3.433,2.474a22.75,22.75,0,0,0,10.724,4.183l1.057.124Z" transform="translate(-213.157 -150.688)" fill="#004aad"/>
        <path id="Path_420-2" data-name="Path 420" d="M183.422,209.541a5.957,5.957,0,0,1-1.188-.119l-.161.115-2.722,26.884h8.813l-3.352-27.045A5.949,5.949,0,0,1,183.422,209.541Z" transform="translate(-165.398 -182.907)" fill="#004aad"/>
        <path id="Path_421-2" data-name="Path 421" d="M80.165,176.4a22.221,22.221,0,0,0-7.345,6.886l-.861,1.3,1.057-.124a22.744,22.744,0,0,0,10.721-4.181l3.333-2.39a5.663,5.663,0,0,1-2.792-3.867Z" transform="translate(-71.958 -152.024)" fill="#004aad"/>
      </g>
    </g>
  </g>
</svg>
