<svg xmlns="http://www.w3.org/2000/svg" width="92" height="92" viewBox="0 0 92 92">
  <g id="Group_96" data-name="Group 96" transform="translate(-699 -576)">
    <rect id="Rectangle_77" data-name="Rectangle 77" width="92" height="92" transform="translate(699 576)" fill="none"/>
    <g id="Group_89" data-name="Group 89" transform="translate(705.714 583.667)">
      <g id="Group_97" data-name="Group 97">
        <path id="Path_425" data-name="Path 425" d="M931.333,1211.767a15.173,15.173,0,1,0,15.176,15.17A15.173,15.173,0,0,0,931.333,1211.767Zm4.357,15.767c-.019.042-.038.086-.058.127l-3.528,7.1v0q-.021.046-.045.09a1.629,1.629,0,1,1-2.872-1.538l2.358-4.743H928.5a1.646,1.646,0,0,1-1.462-2.355l3.533-7.1a1.629,1.629,0,1,1,2.917,1.452l-2.36,4.743h3.049a1.645,1.645,0,0,1,1.515,2.226Z" transform="translate(-899.895 -1186.923)" fill="#cad9fc"/>
        <path id="Path_426" data-name="Path 426" d="M967.414,1213.645l-1.575.012-.041-6.7a1.712,1.712,0,0,0-3.417.023l.041,6.7-4.808.023-.046-6.69a1.712,1.712,0,0,0-3.417.017l.04,6.7-1.564.012.052,8.8c.035,3.348,2.925,6.215,6.2,6.9v7.588a5.87,5.87,0,0,1-5.862,5.868H926.4c-3.452,0-5.254-2.954-5.254-5.868v-2.493H945.94v-6.148H899.761v-27.362l19.751-19.751,19.757,19.751v27.356l3.261.006V1203.5a5.135,5.135,0,0,0,5.224-8.509l-1.048-1.048v-18.164a4.06,4.06,0,0,0-4.049-4.049h-3.765a4.056,4.056,0,0,0-4.049,4.049v6.3l-11.7-11.695a5.139,5.139,0,0,0-7.263,0l-26.3,26.3a5.134,5.134,0,0,0,6.916,7.576v24.13h-3.4v6.148h24.789v2.493c0,5.2,3.661,9.123,8.515,9.123h26.615a9.137,9.137,0,0,0,9.123-9.123v-7.588c.678-.434,3.255-1.413,4.234-3.18a8.951,8.951,0,0,0,1.1-3.817ZM938.1,1175.776a.8.8,0,0,1,.794-.788h3.765a.8.8,0,0,1,.788.788v14.9l-5.346-5.346Zm-43.563,25.868a1.878,1.878,0,0,1-2.653-2.659l26.3-26.3a1.877,1.877,0,0,1,2.659,0l24.605,24.605a1.878,1.878,0,0,1-2.653,2.659l-22.132-22.132a1.622,1.622,0,0,0-2.3,0Z" transform="translate(-888.076 -1168.875)" fill="#004aad"/>
      </g>
    </g>
  </g>
</svg>
