<svg xmlns="http://www.w3.org/2000/svg" width="92" height="92" viewBox="0 0 92 92">
  <g id="Group_92" data-name="Group 92" transform="translate(-677 -443)">
    <rect id="Rectangle_74" data-name="Rectangle 74" width="92" height="92" transform="translate(677 443)" fill="none"/>
    <g id="Group_86" data-name="Group 86" transform="translate(689.267 446.833)">
      <path id="Path_389" data-name="Path 389" d="M809.226,624.028h1.267v54.1h-1.267Z" transform="translate(-748.077 -596.081)" fill="#004aad"/>
      <path id="Path_406" data-name="Path 406" d="M687.022,582.36l-26.216,6.692-3.115.792-20.306,5.184-3.355.856.116.627a1.63,1.63,0,0,1,1.281-.627,1.718,1.718,0,0,1,0,3.434,1.585,1.585,0,0,1-.806-.218l.27,1.479,3.847-.983,18.393-4.691,5.23-1.335,25.533-6.512Zm-27.285,10.735a1.527,1.527,0,0,1,0-3.053l0-.007a1.531,1.531,0,0,1,0,3.061Z" transform="translate(-632.291 -569.088)" fill="#004aad"/>
      <path id="Subtraction_4" data-name="Subtraction 4" d="M703.274,610.4h-2.128v-7.016a2.735,2.735,0,0,0-.769-1.905,2.479,2.479,0,0,0-.786-.549,2.411,2.411,0,0,0-1.056-.232h-.01a2.583,2.583,0,0,0-2.05,1.025,2.723,2.723,0,0,0-.56,1.666V610.4h-2.142a.836.836,0,0,0-.594.253.885.885,0,0,0-.239.62V664.44a.858.858,0,0,0,.837.863h9.511a.828.828,0,0,0,.581-.254.871.871,0,0,0,.249-.613V611.273A.855.855,0,0,0,703.274,610.4ZM700,603.447a1.483,1.483,0,1,1-1.483-1.525l0-.007A1.512,1.512,0,0,1,700,603.447Zm-1.483,46.489-3.659-3.589,3.659-3.585,3.676,3.585Zm0,1.574,3.672,3.61-3.672,3.6-3.662-3.6Zm-3.662-13.94,3.659-3.6,3.676,3.6-3.676,3.592Zm0-8.78,3.662-3.589,3.672,3.589-3.672,3.6Zm0-8.773,3.662-3.589,3.672,3.589-3.672,3.589Zm4.5,4.385,3.126-3.032v6.111Zm0-8.77,3.126-3.1v6.223Zm1.923-3.522-2.784,2.722-2.777-2.722Zm-6.658.507,3.064,3.015-3.064,3.018Zm.007,8.766,3.078,3.022-3.078,3.022Zm.01,8.752,3.068,3.018-3.068,3Zm.01,8.773,3.057,3.011-3.057,3.06Zm.01,8.833,3.047,2.994-3.047,2.994Zm.01,8.784,3.04,2.99-3.04,2.98Zm.56,7.04,3.293-3.2,3.286,3.2Zm7.256-.965-3.126-3.085,3.126-3.068Zm0-8.8-3.126-3.068,3.126-3.061Zm0-8.745-3.129-3.1,3.129-3.068Zm0-8.794-3.129-3.075,3.129-3.071Z" transform="translate(-671.246 -580.969)" fill="#004aad"/>
      <path id="Subtraction_3" data-name="Subtraction 3" d="M790.763,578.458a1.606,1.606,0,0,1-1.433-.916l-7.6-15.793a1.552,1.552,0,0,1-.162-.555l-1.44-13.589a1.663,1.663,0,0,1,1.074-1.75l3.6-1.107a1.561,1.561,0,0,1,.466-.071,1.6,1.6,0,0,1,1.339.736l7.865,12.191a1.715,1.715,0,0,1,.29,1.041l-1.2,18.165a1.623,1.623,0,0,1-1.343,1.517l-1.2.122A1.546,1.546,0,0,1,790.763,578.458Zm-2.744-19.976a2.1,2.1,0,0,0-.008,4.207h.008a2.077,2.077,0,0,0,2.04-2.093,2.132,2.132,0,0,0-.594-1.5,2.035,2.035,0,0,0-1.445-.62Z" transform="translate(-728.911 -544.677)" fill="#cad9fc"/>
      <path id="Path_407" data-name="Path 407" d="M634.034,617.2a3.14,3.14,0,0,0-1.869-.616h0a3.272,3.272,0,0,0-3.221,3.321v55.063h6.446V619.9A3.344,3.344,0,0,0,634.034,617.2Zm-3.621,2.575a1.731,1.731,0,0,1,.383-1.092,1.63,1.63,0,0,1,1.281-.627,1.718,1.718,0,0,1,0,3.434,1.585,1.585,0,0,1-.806-.218A1.712,1.712,0,0,1,630.412,619.771Z" transform="translate(-628.94 -591.256)" fill="#004aad"/>
      <path id="Path_398" data-name="Path 398" d="M794.416,743.937h11.377v10.595H794.416Z" transform="translate(-738.327 -670.598)" fill="#004aad"/>
    </g>
  </g>
</svg>
