<svg xmlns="http://www.w3.org/2000/svg" width="92" height="92" viewBox="0 0 92 92">
  <g id="Group_95" data-name="Group 95" transform="translate(-415 -533)">
    <rect id="Rectangle_76" data-name="Rectangle 76" width="92" height="92" transform="translate(415 533)" fill="none"/>
    <g id="Group_88" data-name="Group 88" transform="translate(421.548 542.835)">
      <path id="Path_412" data-name="Path 412" d="M809.194,1179a35.728,35.728,0,0,1-50.145,8.048,36.268,36.268,0,0,1-14.825-29.272h-3.159a.4.4,0,0,1-.324-.653l5.833-8.49a.377.377,0,0,1,.521-.128.382.382,0,0,1,.127.128l5.833,8.49a.429.429,0,0,1-.133.589.422.422,0,0,1-.191.064h-3.159a30.472,30.472,0,0,0,55.248,18.04Z" transform="translate(-740.642 -1121.609)" fill="#004aad"/>
      <path id="Path_413" data-name="Path 413" d="M753.464,1130.509l4.294,3.183a30.42,30.42,0,0,1,42.692-6.876,30.88,30.88,0,0,1,12.637,24.916h-3.159a.4.4,0,0,0-.324.653l5.833,8.49a.378.378,0,0,0,.521.128.382.382,0,0,0,.127-.128l5.833-8.49a.429.429,0,0,0-.133-.589.423.423,0,0,0-.191-.064h-3.159a35.85,35.85,0,0,0-64.969-21.224Z" transform="translate(-743.077 -1115.57)" fill="#004aad"/>
      <path id="Path_414" data-name="Path 414" d="M805.3,1150.927l-4.213-.735a18.637,18.637,0,0,0-1.863-4.408l2.43-3.51a1.619,1.619,0,0,0-.162-2.122l-2.916-2.939a1.6,1.6,0,0,0-2.106-.163l-3.483,2.449a19.738,19.738,0,0,0-4.536-1.878l-.567-4.163a1.641,1.641,0,0,0-1.62-1.388h-4.212a1.637,1.637,0,0,0-1.539,1.388l-.729,4.245a18.691,18.691,0,0,0-4.536,1.877l-3.483-2.449a1.6,1.6,0,0,0-2.106.163l-1.458,1.469-1.458,1.469a1.626,1.626,0,0,0-.162,2.041l2.43,3.51a20.736,20.736,0,0,0-1.863,4.571l-4.213.734a1.668,1.668,0,0,0-1.377,1.633v4.245a1.65,1.65,0,0,0,1.377,1.551l4.213.735a16.991,16.991,0,0,0,1.944,4.653l-2.43,3.429a1.637,1.637,0,0,0,.162,2.122l2.916,2.939a1.6,1.6,0,0,0,2.106.163l3.483-2.531a16.73,16.73,0,0,0,4.536,1.878l.648,4.163a1.654,1.654,0,0,0,1.62,1.388h4.212a1.624,1.624,0,0,0,1.539-1.388l.729-4.245a16.116,16.116,0,0,0,4.456-1.878l3.4,2.449a1.835,1.835,0,0,0,2.187-.245l1.458-1.469,1.458-1.469a1.618,1.618,0,0,0,.162-2.122l-2.511-3.51a16.631,16.631,0,0,0,1.863-4.572l4.213-.653a1.653,1.653,0,0,0,1.377-1.633v-4.245A1.634,1.634,0,0,0,805.3,1150.927Zm-12.637,4.245-7.534,6.2c-.324.245-.729.081-.729-.245v-3.265h-8.441a.649.649,0,0,1-.632-.653v-4.833a.643.643,0,0,1,.648-.637h8.506v-3.265c0-.326.405-.571.648-.326l7.534,6.2.049.049A.539.539,0,0,1,792.667,1155.172Z" transform="translate(-744.615 -1118.601)" fill="#cad9fc"/>
    </g>
  </g>
</svg>
