<svg xmlns="http://www.w3.org/2000/svg" width="236" height="220" viewBox="0 0 236 220">
  <defs>
    <style>
      .cls-1 {
        fill: rgba(255,255,255,0.2);
      }

      .cls-2 {
        fill: none;
      }

      .cls-3 {
        fill: #8fffff;
      }

      .cls-4, .cls-7 {
        fill: #004aad;
      }

      .cls-5 {
        fill: #cad9fc;
      }

      .cls-6 {
        fill: #252827;
      }

      .cls-7 {
        stroke: #252827;
        stroke-width: 4px;
      }
    </style>
  </defs>
  <g id="Group_15" data-name="Group 15" transform="translate(-292 -1152)">
    <circle id="Ellipse_1" data-name="Ellipse 1" class="cls-1" cx="91" cy="91" r="91" transform="translate(292 1187)"/>
    <circle id="Ellipse_2" data-name="Ellipse 2" class="cls-1" cx="110" cy="110" r="110" transform="translate(308 1152)"/>
    <g id="Group_9" data-name="Group 9" transform="translate(-1 -15)">
      <rect id="Rectangle_4" data-name="Rectangle 4" class="cls-2" width="155" height="155" transform="translate(342 1200)"/>
      <g id="Group_17" data-name="Group 17" transform="translate(-252.67 264.254)">
        <circle id="Ellipse_4" data-name="Ellipse 4" class="cls-3" cx="27.255" cy="27.255" r="27.255" transform="translate(646.665 985.595)"/>
        <g id="Group_16" data-name="Group 16" transform="translate(614.67 957.746)">
          <path id="Path_50" data-name="Path 50" class="cls-4" d="M724.807,1004.78V1020.3a3.565,3.565,0,0,1-3.555,3.555h-8.176a43.806,43.806,0,0,1-4.029,9.717l5.807,5.807.035.035a3.576,3.576,0,0,1-.035,5.06L703.833,1055.5l-.035.035a3.576,3.576,0,0,1-5.06-.035l-5.688-5.688a41.255,41.255,0,0,1-9.717,4.029v8.307a3.493,3.493,0,0,1-3.555,3.425H664.005a3.493,3.493,0,0,1-3.425-3.555v-8.177a44,44,0,0,1-9.717-3.911l-5.807,5.806-.035.036a3.576,3.576,0,0,1-5.06-.036l-11.056-11.056a3.576,3.576,0,0,1,.036-5.06l4.977-4.977a10.543,10.543,0,0,0,4.385,3.792,10.784,10.784,0,0,0,4.74,1.066,11.282,11.282,0,0,0,6.636-2.251l2.856-2.192,6.269-4.8a21.225,21.225,0,0,0,12.916,4.385,21.922,21.922,0,0,0,0-43.845,21.4,21.4,0,0,0-12.916,4.385l-5.83-4.467-3.294-2.524a11.2,11.2,0,0,0-6.636-2.252,10.67,10.67,0,0,0-4.74,1.185,10.15,10.15,0,0,0-4.385,3.911l-5.1-5.1a3.809,3.809,0,0,1,0-5.1l11.056-11.056a3.576,3.576,0,0,1,5.06.036l5.688,5.688a40.758,40.758,0,0,1,9.717-4.029v-8.307a3.485,3.485,0,0,1,3.555-3.425h15.891a3.485,3.485,0,0,1,3.425,3.555V971.6a43.439,43.439,0,0,1,9.717,3.911l5.806-5.807.036-.036a3.576,3.576,0,0,1,5.06.036l11.021,11.021a3.809,3.809,0,0,1,0,5.1l-5.807,5.807a40.2,40.2,0,0,1,4.029,9.6h8.176A3.645,3.645,0,0,1,724.807,1004.78Z" transform="translate(-612.233 -957.376)"/>
          <path id="Path_51" data-name="Path 51" class="cls-5" d="M696.66,1009.282a29.02,29.02,0,0,1-47.98,21.982l6.269-4.8a21.224,21.224,0,0,0,12.916,4.385,21.922,21.922,0,1,0,0-43.845,21.4,21.4,0,0,0-12.916,4.385l-5.83-4.467a29.027,29.027,0,0,1,47.542,22.361Z" transform="translate(-608.378 -953.583)"/>
          <path id="Path_52" data-name="Path 52" class="cls-6" d="M664.446,1068.309l-.133,0a5.86,5.86,0,0,1-5.731-5.968v-6.355a46.3,46.3,0,0,1-6.9-2.78l-4.575,4.574a5.965,5.965,0,0,1-8.458-.013l-11.009-11.007a5.97,5.97,0,0,1,.012-8.46l7.033-7.031,1.594,2.449a8.07,8.07,0,0,0,3.391,2.932,8.68,8.68,0,0,0,3.729.849,8.9,8.9,0,0,0,5.228-1.775l10.551-8.083,1.441,1.1a18.966,18.966,0,0,0,11.475,3.9,19.552,19.552,0,0,0,0-39.1,19.237,19.237,0,0,0-11.481,3.9l-1.44,1.095-10.561-8.09a8.882,8.882,0,0,0-5.216-1.763,8.412,8.412,0,0,0-3.638.924,7.812,7.812,0,0,0-3.441,3.035l-1.569,2.571-7.31-7.314a6.163,6.163,0,0,1,0-8.269l.084-.089,11.021-11.02a6.019,6.019,0,0,1,4.268-1.761A5.906,5.906,0,0,1,647,968.528l4.42,4.419a43.636,43.636,0,0,1,6.926-2.871v-6.565a5.829,5.829,0,0,1,1.794-4.123,5.984,5.984,0,0,1,4.175-1.64H680.03c.021,0,.108,0,.193,0a5.864,5.864,0,0,1,5.732,5.966v6.474a46.15,46.15,0,0,1,6.9,2.781l4.693-4.689a5.843,5.843,0,0,1,4.1-1.646h.044a5.911,5.911,0,0,1,4.194,1.773l11.093,11.1a6.169,6.169,0,0,1,0,8.267l-.087.09-4.546,4.544a42.8,42.8,0,0,1,2.859,6.815h6.466a6.006,6.006,0,0,1,5.866,5.866v15.582a5.95,5.95,0,0,1-5.918,5.925h-6.423a46.666,46.666,0,0,1-2.869,6.917l4.676,4.68a5.843,5.843,0,0,1,1.646,4.149,5.907,5.907,0,0,1-1.773,4.193l-11.009,11.007a5.948,5.948,0,0,1-4.222,1.761h-.046a5.908,5.908,0,0,1-4.191-1.774L693,1053.11a43.489,43.489,0,0,1-6.926,2.871v6.564a5.877,5.877,0,0,1-5.969,5.764H664.446Zm-13.63-20.947,1.559.857a41.606,41.606,0,0,0,9.192,3.7l1.754.472v9.994a1.154,1.154,0,0,0,.313.843,1.118,1.118,0,0,0,.787.342h15.751a1.132,1.132,0,0,0,1.163-1.1v-10.076l1.751-.474a38.7,38.7,0,0,0,9.155-3.8l1.574-.9,6.97,6.971a1.211,1.211,0,0,0,.863.372,1.083,1.083,0,0,0,.857-.347l11.045-11.045a1.212,1.212,0,0,0,.025-1.719l-7.1-7.1.882-1.568a41.8,41.8,0,0,0,3.813-9.2l.486-1.729h9.972a1.2,1.2,0,0,0,1.185-1.192v-15.516a1.264,1.264,0,0,0-1.221-1.185h-9.948l-.478-1.744a37.951,37.951,0,0,0-3.792-9.033l-.918-1.577,7.044-7.041a1.44,1.44,0,0,0,0-1.853l-10.967-10.966a1.213,1.213,0,0,0-.863-.372h-.009a1.2,1.2,0,0,0-.847.347l-7.089,7.089-1.559-.855a41.446,41.446,0,0,0-9.192-3.7l-1.754-.473V963.673a1.132,1.132,0,0,0-1.1-1.185H664.269a1.122,1.122,0,0,0-1.185,1.1v10.075l-1.75.474a38.738,38.738,0,0,0-9.155,3.8l-1.574.9-6.971-6.971a1.213,1.213,0,0,0-.864-.372h-.008a1.2,1.2,0,0,0-.846.347l-10.992,10.991a1.436,1.436,0,0,0,0,1.852l3.164,3.163a12.465,12.465,0,0,1,3.591-2.506,13.1,13.1,0,0,1,5.7-1.4,13.709,13.709,0,0,1,8.1,2.728l7.763,5.949a24.039,24.039,0,0,1,12.843-3.818,24.292,24.292,0,1,1,.009,48.585,23.747,23.747,0,0,1-12.857-3.815l-7.743,5.932a13.682,13.682,0,0,1-8.054,2.741,13.407,13.407,0,0,1-5.795-1.3,12.647,12.647,0,0,1-3.512-2.413l-3.141,3.141a1.213,1.213,0,0,0-.025,1.719l11.045,11.045a1.214,1.214,0,0,0,1.721.024Z" transform="translate(-612.603 -957.746)"/>
          <path id="Path_55" data-name="Path 55" class="cls-7" d="M642.28,1023.324a3.493,3.493,0,0,0,1.777,2.962,3.057,3.057,0,0,0,3.437-.355l20.737-15.879a3.259,3.259,0,0,0,.652-4.562,3.2,3.2,0,0,0-.652-.652l-20.737-15.879a3.211,3.211,0,0,0-2.014-.711,3.148,3.148,0,0,0-1.422.355,3.349,3.349,0,0,0-1.777,2.963v7.229H617.4a2.756,2.756,0,0,0-2.725,2.725v12.087a2.757,2.757,0,0,0,2.725,2.725H642.28Z" transform="translate(-614.67 -952.104)"/>
        </g>
      </g>
    </g>
  </g>
</svg>
