<svg xmlns="http://www.w3.org/2000/svg" width="236" height="220" viewBox="0 0 236 220">
  <defs>
    <style>
      .cls-1 {
        fill: rgba(255,255,255,0.2);
      }

      .cls-2 {
        fill: none;
      }

      .cls-3 {
        fill: #004aad;
      }

      .cls-4 {
        fill: #aab2bd;
      }

      .cls-5 {
        fill: #e8edfc;
      }

      .cls-6 {
        fill: #8fffff;
      }

      .cls-7 {
        fill: #bfffff;
      }

      .cls-8 {
        fill: #6bffff;
      }

      .cls-9 {
        fill: #252827;
      }

      .cls-10 {
        fill: #cad9fc;
      }
    </style>
  </defs>
  <g id="Group_11" data-name="Group 11" transform="translate(-292 -1152)">
    <circle id="Ellipse_1" data-name="Ellipse 1" class="cls-1" cx="91" cy="91" r="91" transform="translate(292 1187)"/>
    <circle id="Ellipse_2" data-name="Ellipse 2" class="cls-1" cx="110" cy="110" r="110" transform="translate(308 1152)"/>
    <g id="Group_9" data-name="Group 9" transform="translate(-1 -15)">
      <rect id="Rectangle_4" data-name="Rectangle 4" class="cls-2" width="155" height="155" transform="translate(342 1200)"/>
    </g>
    <g id="Group_12" data-name="Group 12" transform="translate(-573.1 12.9)">
      <g id="oil-platform" transform="translate(931.1 1189.1)">
        <path id="Path_6" data-name="Path 6" class="cls-3" d="M25.206,32V43.524H6V32H25.206Z" transform="translate(3.603 27.539)"/>
        <path id="Path_7" data-name="Path 7" class="cls-3" d="M30.888,54V69.365H4V54H30.888Z" transform="translate(1.762 47.792)"/>
        <path id="Path_8" data-name="Path 8" class="cls-4" d="M16.682,23.81V39.54H9V25.116Z" transform="translate(6.365 19.999)"/>
        <path id="Path_9" data-name="Path 9" class="cls-4" d="M8,38H19.524V68.73H8Z" transform="translate(5.444 33.062)"/>
        <path id="Path_10" data-name="Path 10" class="cls-5" d="M83.126,10.32l8.259,14.289-22.817,3.88a13.437,13.437,0,0,0-20.723,3.534h-.019l-24.7,4.206-7.682,1.306-5.166.883a8.292,8.292,0,0,1-1.191.1A7.082,7.082,0,0,1,2,31.427V29.2a7.08,7.08,0,0,1,5.973-6.991Z" transform="translate(-0.079 7.58)"/>
        <path id="Path_11" data-name="Path 11" class="cls-4" d="M79.929,24.221a9.843,9.843,0,0,1-.557,13.31,9.641,9.641,0,0,1-6.722,2.862.935.935,0,0,1-.23.019H61.127L56.4,32.269,48.143,17.979,40,3.921V2H56.556a9.812,9.812,0,0,1,7.51,3.476Z" transform="translate(34.903 -0.079)"/>
        <path id="Path_12" data-name="Path 12" class="cls-4" d="M60.682,22.009V45.056H53V22.009h7.452a.935.935,0,0,0,.23-.019Z" transform="translate(46.871 18.323)"/>
        <path id="Path_13" data-name="Path 13" class="cls-6" d="M68.2,25.494a2.078,2.078,0,0,1,.519,1.4,2.148,2.148,0,0,1-2.151,2.151H59.708L46.36,6H50.7a2.147,2.147,0,0,1,1.652.768Z" transform="translate(40.758 3.603)"/>
        <path id="Path_14" data-name="Path 14" class="cls-6" d="M41.956,45l1.21,7.682H28.07L29.28,45Z" transform="translate(23.921 39.506)"/>
        <path id="Path_15" data-name="Path 15" class="cls-7" d="M50.074,91.332v.173h-7.7L38.416,66.537l-1.21-7.682L33.23,33.676a13.349,13.349,0,0,0,7.145-3.726Z" transform="translate(28.671 25.651)"/>
        <path id="Path_16" data-name="Path 16" class="cls-7" d="M38.844,33.676,34.868,58.855l-1.21,7.682h-.019L29.7,91.505H22v-.192L31.7,29.95a13.349,13.349,0,0,0,7.145,3.726Z" transform="translate(18.333 25.651)"/>
        <path id="Path_17" data-name="Path 17" class="cls-3" d="M40.807,44.677a13.313,13.313,0,0,1-4.725,0,13.349,13.349,0,0,1-7.145-3.726v-.019a13.47,13.47,0,0,1-2.286-15.979h.019a13.44,13.44,0,1,1,21.28,15.979v.019a13.349,13.349,0,0,1-7.145,3.726Z" transform="translate(21.094 14.65)"/>
        <ellipse id="Ellipse_3" data-name="Ellipse 3" class="cls-8" cx="5" cy="6" rx="5" ry="6" transform="translate(54.539 40.539)"/>
        <path id="Path_18" data-name="Path 18" class="cls-3" d="M72.795,55.842A13.383,13.383,0,0,1,61.5,76.412h-.115a13.383,13.383,0,0,1-11.293-20.57L61.444,38Z" transform="translate(42.268 33.062)"/>
        <path id="Path_19" data-name="Path 19" d="M58.542,46.463,55.3,48.526,58.277,53.2a3.774,3.774,0,0,1,.592,2.032,3.815,3.815,0,0,1-3.9,3.784l.115,3.841A7.625,7.625,0,0,0,61.517,51.14Z" transform="translate(48.685 40.853)"/>
        <path id="Path_20" data-name="Path 20" d="M62.365,36.137,49.393,56.52a15.365,15.365,0,1,0,25.943,0Zm-.058,40.069a11.466,11.466,0,0,1-9.672-17.623l9.73-15.29,9.73,15.292a11.465,11.465,0,0,1-9.787,17.621Z" transform="translate(41.347 31.347)"/>
        <path id="Path_21" data-name="Path 21" class="cls-9" d="M72.091,57.191a15.286,15.286,0,0,0,1.095-18.8L91.32,35.3l4.6,7.949H98.95V66.3h11.524V43.046a11.754,11.754,0,0,0,6.82-19.15L101.445,5.164A11.743,11.743,0,0,0,92.467,1H73.983V5.358l7,12.086L8.6,28.887A8.965,8.965,0,0,0,1,37.781v2.23a9.009,9.009,0,0,0,10.515,8.877l2.929-.5V58.618H8.682V73.983h3.841v26.888H4.841v15.365H1v3.841H120.077v-3.841H81.364Zm-36.52,59.045V100.871H27.888V73.983H31.73V58.618H25.968V46.428l19.761-3.363a15.176,15.176,0,0,0,3.257,14.126l-9.319,59.045ZM60.539,58.618A11.524,11.524,0,1,1,72.062,47.094,11.535,11.535,0,0,1,60.539,58.618Zm-4.7,28.809h9.407l.607,3.841H55.23Zm.607-3.841,3.34-21.165c.254.013.5.038.757.038s.505-.025.757-.038l3.34,21.165ZM52.412,60.11a15.29,15.29,0,0,0,3.582,1.661L47.4,116.236H43.557Zm2.211,35H66.456l3.334,21.127h-18.5Zm10.46-33.338a15.291,15.291,0,0,0,3.582-1.661l8.856,56.126H73.677Zm37.709.688V43.253h3.841V62.459ZM92.467,4.841a7.9,7.9,0,0,1,6.044,2.8l15.851,18.732a7.919,7.919,0,0,1-6.044,13.035H98.138L78.122,4.841ZM10.872,45.1a5.244,5.244,0,0,1-.868.073,5.169,5.169,0,0,1-5.163-5.163v-2.23a5.138,5.138,0,0,1,4.358-5.1L83.042,21.007l6.225,10.751L70.024,35.033A15.3,15.3,0,0,0,47.6,38.849Zm7.414,2.635,3.841-.653V58.618H18.285ZM12.524,62.459H27.888v7.682H12.524Zm3.841,11.524h7.682v26.888H16.365Zm-7.682,30.73H31.73v11.524H8.682Z" transform="translate(-1 -1)"/>
        <path id="Path_22" data-name="Path 22" d="M35.682,21a7.682,7.682,0,1,0,7.682,7.682A7.69,7.69,0,0,0,35.682,21Zm0,11.524a3.841,3.841,0,1,1,3.841-3.841A3.845,3.845,0,0,1,35.682,32.524Z" transform="translate(23.856 17.412)"/>
        <path id="Path_23" data-name="Path 23" d="M68.157,31.888a4.077,4.077,0,0,0,3.111-6.712L55.418,6.442A4.075,4.075,0,0,0,52.306,5H44.624L60.19,31.888ZM52.306,8.841a.239.239,0,0,1,.181.083L68.393,27.809a.24.24,0,0,1-.236.238h-5.75L51.287,8.841Z" transform="translate(39.16 2.682)"/>
      </g>
      <path id="Subtraction_1" data-name="Subtraction 1" class="cls-10" d="M-.261,20.8v0l-.169-.677v-2.43a6.445,6.445,0,0,1,.648-3.31c.623-1.031,1.8-1.725,3.709-2.182L77.773.512l2.155,3.729L5.312,16.093A7.01,7.01,0,0,0-.26,20.8Z" transform="translate(935.375 1208.588)"/>
    </g>
  </g>
</svg>
